<svg width="58" height="58" viewBox="0 0 58 58" fill="none" xmlns="http://www.w3.org/2000/svg">
<rect x="2" y="2" width="54" height="54" rx="12" fill="white" stroke="black" stroke-width="4"/>
<path d="M21.7654 7.12506C21.5591 7.12703 21.345 7.1768 21.1499 7.28494C20.5303 7.62837 20.3031 8.42455 20.6462 9.04363L22.0452 11.5697C18.6748 13.6552 16.4414 17.2171 16.4414 21.2825C16.4414 21.2996 16.4413 21.3252 16.4414 21.3504C16.4414 21.3593 16.4413 21.3644 16.4414 21.3744C16.4414 21.3877 16.4414 21.4071 16.4414 21.4104V22.0379C15.7941 21.2931 14.8425 20.8228 13.7794 20.8228C11.8316 20.8228 10.25 22.4045 10.25 24.3522V35.2241C10.25 37.1718 11.8316 38.7534 13.7794 38.7534C14.8425 38.7534 15.7941 38.2831 16.4414 37.5384V39.0612C16.4414 41.1144 18.1214 42.7944 20.1746 42.7944H21.1219V47.6308C21.1219 49.5786 22.7035 51.1602 24.6512 51.1602C26.599 51.1602 28.1806 49.5786 28.1806 47.6308V42.7944H29.8194V47.6308C29.8194 49.5786 31.401 51.1602 33.3488 51.1602C35.2965 51.1602 36.8781 49.5786 36.8781 47.6308V42.7944H37.8254C39.8786 42.7944 41.5586 41.1144 41.5586 39.0612V37.5384C42.2059 38.2831 43.1575 38.7534 44.2206 38.7534C46.1684 38.7534 47.75 37.1718 47.75 35.2241V24.3522C47.75 22.4045 46.1684 20.8228 44.2206 20.8228C43.1575 20.8228 42.2059 21.2931 41.5586 22.0379V21.4224V21.4104C41.5587 21.3912 41.5586 21.372 41.5586 21.3744C41.5589 21.3361 41.5586 21.3056 41.5586 21.2825C41.5586 17.2178 39.3202 13.6593 35.9508 11.5737L37.3538 9.04363C37.6969 8.42454 37.4697 7.62837 36.8501 7.28494C36.655 7.1768 36.4409 7.12703 36.2346 7.12506C35.7771 7.12068 35.328 7.3618 35.0914 7.78856L33.6245 10.4386C32.1902 9.90927 30.6295 9.6192 29 9.6192C27.3721 9.6192 25.8086 9.90631 24.3755 10.4346L22.9085 7.78856C22.672 7.3618 22.2229 7.12069 21.7654 7.12506V7.12506Z" fill="white"/>
<path d="M13.7795 21.7422C12.326 21.7422 11.1694 22.8987 11.1694 24.3522V35.2241C11.1694 36.6776 12.326 37.8342 13.7795 37.8342C15.233 37.8342 16.3895 36.6776 16.3895 35.2241V24.3522C16.3895 22.8987 15.233 21.7422 13.7795 21.7422ZM44.2208 21.7422C42.7673 21.7422 41.6107 22.8987 41.6107 24.3522V35.2241C41.6107 36.6776 42.7673 37.8342 44.2208 37.8342C45.6742 37.8342 46.8308 36.6776 46.8308 35.2241V24.3522C46.8308 22.8987 45.6742 21.7422 44.2208 21.7422Z" fill="black"/>
<path d="M24.6511 34.1487C23.1976 34.1487 22.041 35.3052 22.041 36.7587V47.6306C22.041 49.0841 23.1976 50.2407 24.6511 50.2407C26.1046 50.2407 27.2611 49.0841 27.2611 47.6306V36.7587C27.2611 35.3052 26.1046 34.1487 24.6511 34.1487ZM33.3486 34.1487C31.8951 34.1487 30.7385 35.3052 30.7385 36.7587V47.6306C30.7385 49.0841 31.8951 50.2407 33.3486 50.2407C34.8021 50.2407 35.9586 49.0841 35.9586 47.6306V36.7587C35.9586 35.3052 34.8021 34.1487 33.3486 34.1487Z" fill="black"/>
<path d="M21.7731 8.04445C21.7114 8.04508 21.6539 8.061 21.5972 8.09242C21.4111 8.19558 21.3499 8.40945 21.4533 8.59604L23.2919 11.9176C19.7545 13.7582 17.3651 17.2561 17.3604 21.2706H40.639C40.6342 17.2561 38.2448 13.7582 34.7074 11.9176L36.546 8.59604C36.6495 8.40945 36.5882 8.19558 36.4021 8.09242C36.3455 8.061 36.288 8.04504 36.2263 8.04445C36.0942 8.04318 35.969 8.10917 35.8985 8.23631L34.0359 11.5938C32.5122 10.9179 30.8032 10.5386 28.9997 10.5386C27.1962 10.5386 25.4871 10.9179 23.9634 11.5938L22.1008 8.23631C22.0303 8.10917 21.9051 8.04318 21.7731 8.04445ZM17.3604 22.1899V39.0613C17.3604 40.6202 18.6153 41.8752 20.1742 41.8752H37.8251C39.384 41.8752 40.639 40.6202 40.639 39.0613V22.1899H17.3604Z" fill="black"/>
<path d="M23.628 15.0671C23.0966 15.0671 22.6567 15.507 22.6567 16.0384C22.6567 16.5698 23.0966 17.0097 23.628 17.0097C24.1594 17.0097 24.5993 16.5698 24.5993 16.0384C24.5993 15.507 24.1594 15.0671 23.628 15.0671ZM34.372 15.0671C33.8406 15.0671 33.4007 15.507 33.4007 16.0384C33.4007 16.5698 33.8406 17.0097 34.372 17.0097C34.9034 17.0097 35.3433 16.5698 35.3433 16.0384C35.3433 15.507 34.9034 15.0671 34.372 15.0671Z" fill="white"/>
</svg>
