<svg width="58" height="58" viewBox="0 0 58 58" fill="none" xmlns="http://www.w3.org/2000/svg">
<rect x="2" y="2" width="54" height="54" rx="12" fill="white" stroke="black" stroke-width="4"/>
<path d="M16.7062 7.125H41.2938C46.5853 7.125 50.875 11.4147 50.875 16.7062V41.2938C50.875 46.5853 46.5853 50.875 41.2938 50.875H16.7062C11.4147 50.875 7.125 46.5853 7.125 41.2938V16.7062C7.125 11.4147 11.4147 7.125 16.7062 7.125Z" fill="url(#paint0_linear_10_293)"/>
<path d="M21.1455 38.8797L21.1496 38.881L19.6538 41.4719C19.1078 42.4176 17.8984 42.7416 16.9527 42.1956C16.007 41.6496 15.683 40.4403 16.229 39.4946L17.3309 37.586L17.4367 37.4028C17.6255 37.1313 18.0916 36.6629 19.0238 36.751C19.0238 36.751 21.2176 36.989 21.3763 38.1293C21.3764 38.1293 21.398 38.5045 21.1455 38.8797ZM42.3614 32.2624H37.6969C37.3792 32.2411 37.2404 32.1277 37.186 32.0617L37.1826 32.0557L32.1893 23.4072L32.1829 23.4115L31.8834 22.9822C31.3926 22.2317 30.6133 24.1512 30.6133 24.1512C29.6828 26.2901 30.7453 28.7219 31.1158 29.4569L38.0511 41.4692C38.5971 42.4149 39.8064 42.7389 40.7521 42.1929C41.6978 41.647 42.0218 40.4376 41.4759 39.4919L39.7416 36.4881C39.708 36.4154 39.6495 36.2177 40.0052 36.217H42.3614C43.4534 36.217 44.3387 35.3317 44.3387 34.2397C44.3387 33.1477 43.4534 32.2624 42.3614 32.2624ZM33.3014 34.9505C33.3014 34.9505 33.5503 36.2169 32.587 36.2169H31.6236V36.217H15.3435C14.2515 36.217 13.3662 35.3317 13.3662 34.2397C13.3662 33.1477 14.2515 32.2624 15.3435 32.2624H19.7766C20.4923 32.2209 20.662 31.8078 20.662 31.8078L20.6659 31.8097L26.4526 21.7869L26.4509 21.7865C26.5564 21.5929 26.4685 21.41 26.4532 21.381L24.5422 18.071C23.9962 17.1253 24.3202 15.916 25.2659 15.37C26.2116 14.824 27.4209 15.148 27.9669 16.0937L28.8532 17.6289L29.738 16.0964C30.284 15.1507 31.4933 14.8267 32.439 15.3727C33.3847 15.9187 33.7088 17.1281 33.1627 18.0737L25.1104 32.0207C25.0752 32.1056 25.0644 32.2389 25.3264 32.2624H30.1396L30.1406 32.3093C30.1406 32.3093 32.9225 32.3526 33.3014 34.9505Z" fill="white"/>
<defs>
<linearGradient id="paint0_linear_10_293" x1="29" y1="7.125" x2="29" y2="50.875" gradientUnits="userSpaceOnUse">
<stop stop-color="#080808"/>
<stop offset="1"/>
</linearGradient>
</defs>
</svg>
