<svg width="33" height="33" viewBox="0 0 33 33" fill="none" xmlns="http://www.w3.org/2000/svg">
<path fill-rule="evenodd" clip-rule="evenodd" d="M16.4998 0.822998C25.158 0.822998 32.1769 7.84187 32.1769 16.5001C32.1769 25.1583 25.158 32.1772 16.4998 32.1772C7.84162 32.1772 0.822754 25.1583 0.822754 16.5001C0.822754 7.84187 7.84162 0.822998 16.4998 0.822998ZM16.7788 14.8578C16.6333 14.6881 16.3707 14.6881 16.2252 14.8578L12.3324 19.3994C11.9393 19.858 11.2488 19.9111 10.7902 19.518C10.3315 19.1249 10.2784 18.4344 10.6715 17.9758L14.5643 13.4342C15.5828 12.246 17.4211 12.246 18.4397 13.4342L22.3324 17.9758C22.7255 18.4344 22.6724 19.1249 22.2138 19.518C21.7551 19.9111 21.0647 19.858 20.6715 19.3994L16.7788 14.8578Z" fill="white"/>
<path d="M16.2252 14.8578L16.6048 15.1832L16.6048 15.1832L16.2252 14.8578ZM16.7788 14.8578L17.1584 14.5324L17.1584 14.5324L16.7788 14.8578ZM12.3324 19.3994L11.9528 19.074L11.9528 19.074L12.3324 19.3994ZM10.7902 19.518L11.1156 19.1384L11.1156 19.1384L10.7902 19.518ZM10.6715 17.9758L10.2919 17.6504L10.2919 17.6504L10.6715 17.9758ZM14.5643 13.4342L14.1847 13.1088L14.1847 13.1088L14.5643 13.4342ZM18.4397 13.4342L18.8193 13.1088L18.8193 13.1088L18.4397 13.4342ZM22.3324 17.9758L21.9528 18.3012L21.9528 18.3012L22.3324 17.9758ZM22.2138 19.518L21.8884 19.1384L21.8884 19.1384L22.2138 19.518ZM20.6715 19.3994L21.0512 19.074L21.0512 19.074L20.6715 19.3994ZM32.6769 16.5001C32.6769 7.56572 25.4342 0.322998 16.4998 0.322998V1.323C24.8819 1.323 31.6769 8.11801 31.6769 16.5001H32.6769ZM16.4998 32.6772C25.4342 32.6772 32.6769 25.4344 32.6769 16.5001H31.6769C31.6769 24.8822 24.8819 31.6772 16.4998 31.6772V32.6772ZM0.322754 16.5001C0.322754 25.4344 7.56548 32.6772 16.4998 32.6772V31.6772C8.11776 31.6772 1.32275 24.8822 1.32275 16.5001H0.322754ZM16.4998 0.322998C7.56548 0.322998 0.322754 7.56572 0.322754 16.5001H1.32275C1.32275 8.11801 8.11776 1.323 16.4998 1.323V0.322998ZM16.6048 15.1832C16.5507 15.2463 16.4532 15.2463 16.3992 15.1832L17.1584 14.5324C16.8134 14.1299 16.1906 14.1299 15.8455 14.5324L16.6048 15.1832ZM12.712 19.7248L16.6048 15.1832L15.8455 14.5324L11.9528 19.074L12.712 19.7248ZM10.4648 19.8976C11.1331 20.4705 12.1392 20.3931 12.712 19.7248L11.9528 19.074C11.7394 19.323 11.3645 19.3518 11.1156 19.1384L10.4648 19.8976ZM10.2919 17.6504C9.71909 18.3187 9.79648 19.3248 10.4648 19.8976L11.1156 19.1384C10.8666 18.925 10.8378 18.5501 11.0512 18.3012L10.2919 17.6504ZM14.1847 13.1088L10.2919 17.6504L11.0512 18.3012L14.9439 13.7596L14.1847 13.1088ZM18.8193 13.1088C17.6012 11.6878 15.4027 11.6878 14.1847 13.1088L14.9439 13.7596C15.7629 12.8042 17.2411 12.8042 18.06 13.7596L18.8193 13.1088ZM22.712 17.6504L18.8193 13.1088L18.06 13.7596L21.9528 18.3012L22.712 17.6504ZM22.5392 19.8976C23.2075 19.3248 23.2849 18.3187 22.712 17.6504L21.9528 18.3012C22.1662 18.5501 22.1374 18.925 21.8884 19.1384L22.5392 19.8976ZM20.2919 19.7248C20.8647 20.3931 21.8709 20.4705 22.5392 19.8976L21.8884 19.1384C21.6394 19.3518 21.2646 19.323 21.0512 19.074L20.2919 19.7248ZM16.3992 15.1832L20.2919 19.7248L21.0512 19.074L17.1584 14.5324L16.3992 15.1832Z" fill="black"/>
</svg>
