<svg width="42" height="42" viewBox="0 0 42 42" fill="none" xmlns="http://www.w3.org/2000/svg">
<path fill-rule="evenodd" clip-rule="evenodd" d="M0.6875 21C0.6875 32.2183 9.78172 41.3125 21 41.3125C32.2183 41.3125 41.3125 32.2183 41.3125 21C41.3125 9.78172 32.2183 0.6875 21 0.6875C9.78172 0.6875 0.6875 9.78172 0.6875 21ZM16.7701 29.9174C17.3803 30.5275 18.3697 30.5275 18.9799 29.9174L26.7924 22.1049L26.9223 21.9577C27.3989 21.3447 27.3556 20.4584 26.7924 19.8951L18.9799 12.0826L18.8327 11.9527C18.2197 11.4761 17.3334 11.5194 16.7701 12.0826L16.6402 12.2298C16.1636 12.8428 16.2069 13.7291 16.7701 14.2924L23.4766 21L16.7701 27.7076L16.6402 27.8548C16.1636 28.4678 16.2069 29.3541 16.7701 29.9174Z" fill="white"/>
</svg>
