<svg width="58" height="58" viewBox="0 0 58 58" fill="none" xmlns="http://www.w3.org/2000/svg">
<rect x="2" y="2" width="54" height="54" rx="12" fill="white" stroke="black" stroke-width="4"/>
<path fill-rule="evenodd" clip-rule="evenodd" d="M42.2212 43.6629L45.1668 10.6667H12.8335L15.776 43.6681L28.9804 47.3334L42.2212 43.6629ZM28.9862 17.4126H28.9861H18.8501L19.2181 21.4601H28.9862H29.0001H34.69L34.3217 25.6048H28.9862V25.6048H19.5791L19.9419 29.6523H29.0001V29.6522H33.9707L33.5008 34.9015L28.9862 36.1199V36.1202L28.9825 36.1212L24.4745 34.904L24.1863 31.676H21.9957H20.1229L20.69 38.0311L28.9816 40.3327L29.0003 40.3276V40.3269L37.2844 38.0311L37.3453 37.3473L38.2965 26.6916L38.3953 25.6048L39.126 17.4126H29.0001H28.9862Z" fill="black"/>
</svg>
