<svg width="58" height="58" viewBox="0 0 58 58" fill="none" xmlns="http://www.w3.org/2000/svg">
<rect x="2" y="2" width="54" height="54" rx="12" fill="white" stroke="black" stroke-width="4"/>
<path d="M48.2259 26.4373C47.3815 25.8026 45.4464 25.5645 43.9334 25.8819C43.7575 24.295 42.9483 22.9066 41.5409 21.6767L40.7316 21.042L40.1687 21.9544C39.465 23.1446 39.1131 24.8108 39.2187 26.3976C39.2539 26.953 39.4298 27.9448 39.9576 28.8176C39.465 29.1349 38.4446 29.5317 37.1076 29.5317H11.6692L11.5988 29.849C11.3525 31.4359 11.3525 36.3948 14.2376 40.2032C16.4191 43.0992 19.6561 44.5671 23.9134 44.5671C33.1318 44.5671 39.9576 39.7668 43.1594 31.0788C44.426 31.1185 47.1352 31.0788 48.5074 28.1035C48.5426 28.0241 48.613 27.8655 48.8593 27.2704L49 26.953L48.2259 26.4373ZM32.0058 15.25H28.1355V19.2171H32.0058V15.25ZM32.0058 20.0106H28.1355V23.9777H32.0058V20.0106ZM27.4318 20.0106H23.5615V23.9777H27.4318V20.0106ZM22.8579 20.0106H18.9875V23.9777H22.8579V20.0106ZM18.2839 24.7711H14.4136V28.7382H18.2839V24.7711ZM22.8579 24.7711H18.9875V28.7382H22.8579V24.7711ZM27.4318 24.7711H23.5615V28.7382H27.4318V24.7711ZM32.0058 24.7711H28.1355V28.7382H32.0058V24.7711ZM36.5798 24.7711H32.7095V28.7382H36.5798V24.7711Z" fill="black"/>
</svg>
