<svg width="86" height="86" viewBox="0 0 86 86" fill="none" xmlns="http://www.w3.org/2000/svg">
<rect x="4" y="4" width="77.6364" height="77.6364" rx="14" fill="white"/>
<rect x="4" y="4" width="77.6364" height="77.6364" rx="14" stroke="black" stroke-width="8"/>
<path d="M14.9771 34.7753C14.9771 27.8453 14.9771 24.3804 16.3257 21.7335C17.512 19.4052 19.405 17.5123 21.7332 16.326C24.3801 14.9773 27.8451 14.9773 34.775 14.9773H50.8609C57.7908 14.9773 61.2558 14.9773 63.9027 16.326C66.231 17.5123 68.1239 19.4052 69.3102 21.7335C70.6589 24.3804 70.6589 27.8453 70.6589 34.7753V50.8611C70.6589 57.7911 70.6589 61.256 69.3102 63.9029C68.1239 66.2312 66.231 68.1241 63.9027 69.3105C61.2558 70.6591 57.7908 70.6591 50.8609 70.6591H34.775C27.8451 70.6591 24.3801 70.6591 21.7332 69.3105C19.405 68.1241 17.512 66.2312 16.3257 63.9029C14.9771 61.256 14.9771 57.7911 14.9771 50.8611V34.7753Z" fill="white"/>
<path d="M54.8521 27.949L42.946 37.2407L30.7676 27.949V27.9515L30.7823 27.964V40.975L42.8086 50.4676L54.8521 41.3416V27.949Z" fill="black"/>
<path d="M57.9788 25.6888L54.8521 27.9489V41.3416L64.6909 33.7877V29.2372C64.6909 29.2372 63.4966 22.738 57.9788 25.6888Z" fill="black"/>
<path d="M54.8521 41.3418V58.7123H62.393C62.393 58.7123 64.5388 58.4913 64.6933 56.0453V33.7878L54.8521 41.3418Z" fill="black"/>
<path d="M30.7829 58.7272V40.975L30.7676 40.9624L30.7829 58.7272Z" fill="black"/>
<path d="M30.7675 27.9518L27.6579 25.7042C22.1401 22.7534 20.9434 29.2501 20.9434 29.2501V33.8005L30.7675 40.9627V27.9518Z" fill="black"/>
<path d="M30.7676 27.9514V40.9624L30.7829 40.9749V27.964L30.7676 27.9514Z" fill="black"/>
<path d="M20.9434 33.8027V56.0602C21.0954 58.5087 23.2437 58.7272 23.2437 58.7272H30.7847L30.7675 40.9624L20.9434 33.8027Z" fill="black"/>
</svg>
