<svg width="1920" height="875" viewBox="0 0 1920 875" fill="none" xmlns="http://www.w3.org/2000/svg">
<rect width="1920" height="875" fill="black"/>
<rect width="1920" height="875" fill="white" fill-opacity="0.14"/>
<path d="M400.5 337V636.5H201.5V337C201.5 282.048 246.048 237.5 301 237.5C355.952 237.5 400.5 282.048 400.5 337Z" stroke="white"/>
<path d="M204.199 636.5L400.5 438.216V636.5H204.199Z" stroke="white"/>
<path d="M103.5 237.5H302.5V537C302.5 591.952 257.952 636.5 203 636.5C148.048 636.5 103.5 591.952 103.5 537V237.5Z" stroke="white"/>
<path d="M301.793 237.5L103.5 435.793V237.5H301.793Z" stroke="white"/>
<path d="M323.357 466.643C341.899 485.185 352.367 510.291 352.499 536.5L153.501 536.5C153.633 510.291 164.101 485.185 182.643 466.643C201.303 447.983 226.611 437.5 253 437.5C279.389 437.5 304.697 447.983 323.357 466.643Z" stroke="white"/>
<path d="M323.357 407.357C341.899 388.815 352.367 363.709 352.499 337.5L153.501 337.5C153.633 363.709 164.101 388.815 182.643 407.357C201.303 426.017 226.611 436.5 253 436.5C279.389 436.5 304.697 426.017 323.357 407.357Z" stroke="white"/>
<path d="M901.166 237.5C901.034 272.549 887.054 306.134 862.261 330.927C837.35 355.838 803.563 369.833 768.333 369.833C733.104 369.833 699.317 355.838 674.406 330.927C649.613 306.134 635.633 272.549 635.501 237.5L901.166 237.5Z" stroke="white"/>
<path d="M901.166 370.833C901.034 405.883 887.054 439.468 862.261 464.261C837.35 489.172 803.563 503.167 768.333 503.167C733.104 503.167 699.317 489.172 674.406 464.261C649.613 439.468 635.633 405.883 635.501 370.833L901.166 370.833Z" stroke="white"/>
<path d="M901.166 504.167C901.034 539.216 887.054 572.801 862.261 597.594C837.35 622.505 803.563 636.5 768.333 636.5C733.104 636.5 699.317 622.505 674.406 597.594C649.613 572.801 635.633 539.216 635.501 504.167L901.166 504.167Z" stroke="white"/>
<path d="M763 237.5H773.667C844.083 237.5 901.167 294.584 901.167 365V636.5H635.5V365C635.5 294.584 692.584 237.5 763 237.5Z" stroke="white"/>
<path d="M763 370.833H773.667C844.083 370.833 901.167 427.917 901.167 498.333V636.5H635.5V498.333C635.5 427.917 692.584 370.833 763 370.833Z" stroke="white"/>
<path d="M763 504.167H773.667C844.083 504.167 901.167 561.25 901.167 631.667V636.5H635.5V631.667C635.5 561.25 692.584 504.167 763 504.167Z" stroke="white"/>
<path d="M1207.68 532.932C1156.12 532.932 1114.31 490.143 1114.31 437.336C1114.31 384.529 1156.12 341.74 1207.68 341.74C1259.23 341.74 1301.04 384.529 1301.04 437.336C1301.04 490.143 1259.23 532.932 1207.68 532.932Z" stroke="white"/>
<rect y="0.715349" width="179.318" height="179.318" transform="matrix(0.698767 0.715349 -0.698767 0.715349 1201.5 237.204)" stroke="white"/>
<rect y="0.715349" width="179.318" height="179.318" transform="matrix(0.698767 0.715349 -0.698767 0.715349 1201.5 379.223)" stroke="white"/>
<path d="M1761.77 503.667L1613 569.786L1464.23 503.667L1613 437.547L1761.77 503.667Z" stroke="white"/>
<path d="M1761.77 570.333L1613 636.453L1464.23 570.333L1613 504.214L1761.77 570.333Z" stroke="white"/>
<path d="M1761.77 437L1613 503.12L1464.23 437L1613 370.881L1761.77 437Z" stroke="white"/>
<path d="M1761.77 370.333L1613 436.453L1464.23 370.333L1613 304.214L1761.77 370.333Z" stroke="white"/>
<path d="M1761.77 370.333L1613 436.453L1464.23 370.333L1613 304.214L1761.77 370.333Z" stroke="white"/>
<path d="M1761.77 303.667L1613 369.786L1464.23 303.667L1613 237.547L1761.77 303.667Z" stroke="white"/>
</svg>
