<svg width="58" height="58" viewBox="0 0 58 58" fill="none" xmlns="http://www.w3.org/2000/svg">
<rect x="2" y="2" width="54" height="54" rx="12" fill="white" stroke="black" stroke-width="4"/>
<g clip-path="url(#clip0_10_292)">
<path d="M22.75 47.125C26.2 47.125 29 44.325 29 40.875V34.625H22.75C19.3 34.625 16.5 37.425 16.5 40.875C16.5 44.325 19.3 47.125 22.75 47.125Z" fill="black"/>
<path d="M16.5 28.375C16.5 24.925 19.3 22.125 22.75 22.125H29V34.625H22.75C19.3 34.625 16.5 31.825 16.5 28.375Z" fill="black"/>
<path d="M16.5 15.875C16.5 12.425 19.3 9.625 22.75 9.625H29V22.125H22.75C19.3 22.125 16.5 19.325 16.5 15.875Z" fill="#100F0F"/>
<path d="M29 9.625H35.25C38.7 9.625 41.5 12.425 41.5 15.875C41.5 19.325 38.7 22.125 35.25 22.125H29V9.625Z" fill="black"/>
<path d="M41.5 28.375C41.5 31.825 38.7 34.625 35.25 34.625C31.8 34.625 29 31.825 29 28.375C29 24.925 31.8 22.125 35.25 22.125C38.7 22.125 41.5 24.925 41.5 28.375Z" fill="black"/>
</g>
<defs>
<clipPath id="clip0_10_292">
<rect width="25" height="37.5" fill="white" transform="translate(16.5 9.625)"/>
</clipPath>
</defs>
</svg>
