<svg width="58" height="58" viewBox="0 0 58 58" fill="none" xmlns="http://www.w3.org/2000/svg">
<rect x="2" y="2" width="54" height="54" rx="12" fill="white" stroke="black" stroke-width="4"/>
<g clip-path="url(#clip0_10_328)">
<path d="M48.2338 26.8774L30.4963 9.14123C29.4755 8.11959 27.8187 8.11959 26.7966 9.14123L23.1134 12.8244L27.7857 17.4967C28.8715 17.1299 30.1165 17.3759 30.9821 18.2415C31.8518 19.1125 32.096 20.3682 31.7203 21.4576L36.2232 25.9605C37.3126 25.5852 38.5696 25.8281 39.4397 26.6995C40.6557 27.9151 40.6557 29.8853 39.4397 31.1017C38.2232 32.3181 36.2531 32.3181 35.0362 31.1017C34.1215 30.1861 33.8955 28.8427 34.3586 27.7158L30.1593 23.5165L30.1588 34.5674C30.4553 34.7145 30.7352 34.9101 30.9821 35.1562C32.1981 36.3717 32.1981 38.3419 30.9821 39.5593C29.7657 40.7752 27.7946 40.7752 26.58 39.5593C25.364 38.3419 25.364 36.3717 26.58 35.1562C26.8804 34.8562 27.2281 34.6293 27.5989 34.4769V23.323C27.2281 23.1715 26.8808 22.9459 26.58 22.6437C25.6586 21.7237 25.4371 20.3718 25.9091 19.2405L21.3037 14.6341L9.14157 26.7954C8.11948 27.8179 8.11948 29.4747 9.14157 30.4964L26.8791 48.233C27.9003 49.2546 29.5566 49.2546 30.5792 48.233L48.2338 30.5788C49.2554 29.5568 49.2554 27.899 48.2338 26.8774Z" fill="black"/>
</g>
<defs>
<clipPath id="clip0_10_328">
<rect width="40.625" height="40.625" fill="white" transform="translate(8.375 8.375)"/>
</clipPath>
</defs>
</svg>
