<svg width="58" height="58" viewBox="0 0 58 58" fill="none" xmlns="http://www.w3.org/2000/svg">
<rect x="2" y="2" width="54" height="54" rx="12" fill="white" stroke="black" stroke-width="4"/>
<g clip-path="url(#clip0_10_244)">
<path d="M37.908 35.2024C42.6628 32.5916 46.2675 30.6022 46.5781 30.4477C47.5721 29.919 48.5985 28.5201 46.5781 27.4335C45.9258 27.0918 42.4139 25.1643 37.908 22.6787L31.6616 28.9869L37.908 35.2024Z" fill="#9C9A91"/>
<path d="M31.6617 28.9868L11.7725 49.0322C12.2393 49.094 12.7664 48.9703 13.3878 48.6287C14.6924 47.9146 28.5223 40.362 37.9081 35.2038L31.6617 28.9868Z" fill="#5C484A"/>
<path d="M31.6618 28.9869L37.9082 22.7096C37.9082 22.7096 14.7868 10.0916 13.3879 9.34651C12.8608 9.03427 12.2703 8.94152 11.7417 9.03427L31.6618 28.9869Z" fill="#C2D5CC"/>
<path d="M31.6618 28.9868L11.7417 9.03418C10.9332 9.22122 10.25 9.93535 10.25 11.3961C10.25 13.7271 10.25 44.7426 10.25 46.6702C10.25 48.0073 10.7786 48.9703 11.7726 49.063L31.6618 28.9868Z" fill="black"/>
</g>
<defs>
<clipPath id="clip0_10_244">
<rect width="37.5" height="40.1367" fill="white" transform="translate(10.25 9)"/>
</clipPath>
</defs>
</svg>
