<svg width="87" height="86" viewBox="0 0 87 86" fill="none" xmlns="http://www.w3.org/2000/svg">
<rect x="4.87891" y="4" width="78" height="78" rx="14" fill="white" stroke="black" stroke-width="8"/>
<rect x="18.6787" y="18.5" width="49" height="49" rx="6" fill="url(#paint0_radial_10_426)"/>
<rect x="18.6787" y="18.5" width="49" height="49" rx="6" fill="url(#paint1_radial_10_426)"/>
<rect x="18.6787" y="18.5" width="49" height="49" rx="6" fill="url(#paint2_radial_10_426)"/>
<path d="M55.4287 33.375C55.4287 34.8247 54.2535 36 52.8037 36C51.354 36 50.1787 34.8247 50.1787 33.375C50.1787 31.9253 51.354 30.75 52.8037 30.75C54.2535 30.75 55.4287 31.9253 55.4287 33.375Z" fill="white"/>
<path fill-rule="evenodd" clip-rule="evenodd" d="M43.1787 51.75C48.0112 51.75 51.9287 47.8325 51.9287 43C51.9287 38.1675 48.0112 34.25 43.1787 34.25C38.3462 34.25 34.4287 38.1675 34.4287 43C34.4287 47.8325 38.3462 51.75 43.1787 51.75ZM43.1787 48.25C46.0782 48.25 48.4287 45.8995 48.4287 43C48.4287 40.1005 46.0782 37.75 43.1787 37.75C40.2792 37.75 37.9287 40.1005 37.9287 43C37.9287 45.8995 40.2792 48.25 43.1787 48.25Z" fill="white"/>
<path fill-rule="evenodd" clip-rule="evenodd" d="M25.6787 42.3C25.6787 36.4194 25.6787 33.4792 26.8231 31.2331C27.8298 29.2574 29.4361 27.6511 31.4118 26.6444C33.6579 25.5 36.5982 25.5 42.4787 25.5H43.8787C49.7593 25.5 52.6995 25.5 54.9456 26.6444C56.9213 27.6511 58.5276 29.2574 59.5343 31.2331C60.6787 33.4792 60.6787 36.4194 60.6787 42.3V43.7C60.6787 49.5806 60.6787 52.5208 59.5343 54.7669C58.5276 56.7426 56.9213 58.3489 54.9456 59.3556C52.6995 60.5 49.7593 60.5 43.8787 60.5H42.4787C36.5982 60.5 33.6579 60.5 31.4118 59.3556C29.4361 58.3489 27.8298 56.7426 26.8231 54.7669C25.6787 52.5208 25.6787 49.5806 25.6787 43.7V42.3ZM42.4787 29H43.8787C46.8767 29 48.9148 29.0027 50.4901 29.1314C52.0245 29.2568 52.8092 29.484 53.3566 29.763C54.6738 30.4341 55.7446 31.5049 56.4158 32.8221C56.6947 33.3695 56.9219 34.1542 57.0473 35.6886C57.176 37.2639 57.1787 39.302 57.1787 42.3V43.7C57.1787 46.698 57.176 48.7361 57.0473 50.3114C56.9219 51.8458 56.6947 52.6305 56.4158 53.1779C55.7446 54.4951 54.6738 55.5659 53.3566 56.237C52.8092 56.516 52.0245 56.7432 50.4901 56.8686C48.9148 56.9973 46.8767 57 43.8787 57H42.4787C39.4807 57 37.4427 56.9973 35.8673 56.8686C34.3329 56.7432 33.5482 56.516 33.0008 56.237C31.6836 55.5659 30.6128 54.4951 29.9417 53.1779C29.6628 52.6305 29.4355 51.8458 29.3101 50.3114C29.1814 48.7361 29.1787 46.698 29.1787 43.7V42.3C29.1787 39.302 29.1814 37.2639 29.3101 35.6886C29.4355 34.1542 29.6628 33.3695 29.9417 32.8221C30.6128 31.5049 31.6836 30.4341 33.0008 29.763C33.5482 29.484 34.3329 29.2568 35.8673 29.1314C37.4427 29.0027 39.4807 29 42.4787 29Z" fill="white"/>
<defs>
<radialGradient id="paint0_radial_10_426" cx="0" cy="0" r="1" gradientUnits="userSpaceOnUse" gradientTransform="translate(36.1787 55.25) rotate(-55.3758) scale(44.6593)">
<stop/>
<stop offset="0.79309"/>
<stop offset="1"/>
</radialGradient>
<radialGradient id="paint1_radial_10_426" cx="0" cy="0" r="1" gradientUnits="userSpaceOnUse" gradientTransform="translate(34.4287 69.25) rotate(-65.1363) scale(39.5399)">
<stop/>
<stop offset="0.444662"/>
<stop offset="0.71474" stop-color="#E2425C"/>
<stop offset="1" stop-color="#E2425C" stop-opacity="0"/>
</radialGradient>
<radialGradient id="paint2_radial_10_426" cx="0" cy="0" r="1" gradientUnits="userSpaceOnUse" gradientTransform="translate(16.0537 20.25) rotate(-8.1301) scale(68.059 14.5571)">
<stop offset="0.156701"/>
<stop offset="0.467799"/>
<stop offset="1" stop-opacity="0"/>
</radialGradient>
</defs>
</svg>
