<svg width="267" height="400" viewBox="0 0 267 400" fill="none" xmlns="http://www.w3.org/2000/svg">
<path d="M266.166 0.5C266.034 35.5491 252.054 69.1341 227.261 93.9273C202.35 118.838 168.563 132.833 133.333 132.833C98.1037 132.833 64.3171 118.838 39.406 93.9274C14.6128 69.1341 0.632692 35.5492 0.50094 0.50002L266.166 0.5Z" stroke="white"/>
<path d="M266.166 133.833C266.034 168.883 252.054 202.468 227.261 227.261C202.35 252.172 168.563 266.167 133.333 266.167C98.1037 266.167 64.3171 252.172 39.406 227.261C14.6128 202.468 0.632692 168.883 0.50094 133.833L266.166 133.833Z" stroke="white"/>
<path d="M266.166 267.167C266.034 302.216 252.054 335.801 227.261 360.594C202.35 385.505 168.563 399.5 133.333 399.5C98.1037 399.5 64.3171 385.505 39.406 360.594C14.6128 335.801 0.632692 302.216 0.50094 267.167L266.166 267.167Z" stroke="white"/>
<path d="M128 0.5H138.667C209.083 0.5 266.167 57.5837 266.167 128V399.5H0.5V128C0.5 57.5837 57.5837 0.5 128 0.5Z" stroke="white"/>
<path d="M128 133.833H138.667C209.083 133.833 266.167 190.917 266.167 261.333V399.5H0.5V261.333C0.5 190.917 57.5837 133.833 128 133.833Z" stroke="white"/>
<path d="M128 267.167H138.667C209.083 267.167 266.167 324.25 266.167 394.667V399.5H0.5V394.667C0.5 324.25 57.5837 267.167 128 267.167Z" stroke="white"/>
</svg>
