<svg width="50" height="50" viewBox="0 0 50 50" fill="none" xmlns="http://www.w3.org/2000/svg">
<g clip-path="url(#clip0_10_198)">
<path d="M0 0H50V50H0V0Z" fill="#FFFFFE"/>
<path d="M13.1471 41.7836L16.9734 39.468C17.7116 40.7768 18.3831 41.8842 19.9938 41.8842C21.5378 41.8842 22.5112 41.2802 22.5112 38.931V22.9548H27.2099V38.9975C27.2099 43.8641 24.3572 46.0793 20.1952 46.0793C16.4364 46.0793 14.2545 44.1325 13.147 41.7832" fill="black"/>
<path d="M29.7617 41.2802L33.5876 39.0651C34.5947 40.7098 35.9037 41.918 38.2194 41.918C40.1663 41.918 41.4078 40.9446 41.4078 39.6021C41.4078 37.991 40.1325 37.4204 37.9844 36.481L36.8101 35.9771C33.42 34.5342 31.1712 32.7218 31.1712 28.8956C31.1712 25.3714 33.8562 22.6863 38.0517 22.6863C41.0389 22.6863 43.1869 23.7268 44.7306 26.4455L41.0722 28.7948C40.2666 27.3517 39.3943 26.7812 38.0518 26.7812C36.6757 26.7812 35.803 27.6538 35.803 28.7948C35.803 30.2045 36.6757 30.7752 38.6893 31.6479L39.8639 32.1513C43.8579 33.8631 46.1067 35.6082 46.1067 39.5349C46.1067 43.7641 42.784 46.0798 38.3202 46.0798C33.957 46.0798 31.1377 43.999 29.7618 41.2802" fill="black"/>
</g>
<rect x="2" y="2" width="46" height="46" rx="8" stroke="black" stroke-width="4"/>
<defs>
<clipPath id="clip0_10_198">
<rect width="50" height="50" rx="10" fill="white"/>
</clipPath>
</defs>
</svg>
