<svg width="300" height="400" viewBox="0 0 300 400" fill="none" xmlns="http://www.w3.org/2000/svg">
<path d="M298.769 266.667L150 332.786L1.23111 266.667L150 200.547L298.769 266.667Z" stroke="white"/>
<path d="M298.769 333.333L150 399.453L1.23111 333.333L150 267.214L298.769 333.333Z" stroke="white"/>
<path d="M298.769 200L150 266.12L1.23111 200L150 133.881L298.769 200Z" stroke="white"/>
<path d="M298.769 133.333L150 199.453L1.23111 133.333L150 67.2138L298.769 133.333Z" stroke="white"/>
<path d="M298.769 133.333L150 199.453L1.23111 133.333L150 67.2138L298.769 133.333Z" stroke="white"/>
<path d="M298.769 66.6667L150 132.786L1.23111 66.6667L150 0.547211L298.769 66.6667Z" stroke="white"/>
</svg>
