<svg width="32" height="32" viewBox="0 0 32 32" fill="none" xmlns="http://www.w3.org/2000/svg">
<path d="M20 23C20.5523 23 21 23.4477 21 24C21 24.5128 20.614 24.9355 20.1166 24.9933L20 25H12C11.4477 25 11 24.5523 11 24C11 23.4872 11.386 23.0645 11.8834 23.0067L12 23H20Z" fill="black"/>
<path d="M26 15C26.5523 15 27 15.4477 27 16C27 16.5128 26.614 16.9355 26.1166 16.9933L26 17H6C5.44772 17 5 16.5523 5 16C5 15.4872 5.38604 15.0645 5.88338 15.0067L6 15H26Z" fill="black"/>
<path d="M20 7C20.5523 7 21 7.44772 21 8C21 8.51284 20.614 8.93551 20.1166 8.99327L20 9H12C11.4477 9 11 8.55228 11 8C11 7.48716 11.386 7.06449 11.8834 7.00673L12 7H20Z" fill="black"/>
</svg>
