<svg width="58" height="58" viewBox="0 0 58 58" fill="none" xmlns="http://www.w3.org/2000/svg">
<rect x="2" y="2" width="54" height="54" rx="12" fill="white" stroke="black" stroke-width="4"/>
<g clip-path="url(#clip0_10_207)">
<rect width="40.625" height="40.625" transform="translate(8.375 9)" fill="white"/>
<path d="M27.3572 9.01093C27.2698 9.01887 26.9918 9.04667 26.7416 9.06652C20.9715 9.58667 15.5668 12.6996 12.1436 17.4841C10.2375 20.1444 9.01833 23.1621 8.55767 26.3584C8.39486 27.4741 8.375 27.8037 8.375 29.3165C8.375 30.8293 8.39486 31.1588 8.55767 32.2746C9.66166 39.902 15.0902 46.3106 22.4528 48.685C23.7712 49.1098 25.1611 49.3997 26.7416 49.5744C27.3572 49.6419 30.0178 49.6419 30.6334 49.5744C33.3616 49.2726 35.6728 48.5976 37.9522 47.4342C38.3017 47.2556 38.3692 47.2079 38.3215 47.1682C38.2898 47.1444 36.8006 45.1472 35.0136 42.7331L31.7652 38.3456L27.6947 32.3222C25.455 29.0107 23.6124 26.3028 23.5965 26.3028C23.5806 26.2988 23.5647 28.975 23.5568 32.2428C23.5448 37.9644 23.5409 38.1947 23.4694 38.3297C23.3661 38.5243 23.2867 38.6037 23.1199 38.691C22.9929 38.7545 22.8817 38.7665 22.282 38.7665H21.595L21.4123 38.6513C21.2932 38.5759 21.2058 38.4766 21.1463 38.3615L21.0629 38.1828L21.0708 30.2218L21.0827 22.2568L21.2058 22.1019C21.2694 22.0186 21.4044 21.9113 21.4997 21.8597C21.6625 21.7803 21.7261 21.7724 22.4131 21.7724C23.2232 21.7724 23.3582 21.8041 23.5687 22.0344C23.6282 22.098 25.8322 25.4174 28.4691 29.4157C31.1059 33.4141 34.7118 38.8737 36.4829 41.5538L39.6995 46.4257L39.8624 46.3185C41.3039 45.3814 42.8288 44.0473 44.036 42.6576C46.6054 39.7075 48.2614 36.1101 48.8173 32.2746C48.9801 31.1588 49 30.8293 49 29.3165C49 27.8037 48.9801 27.4741 48.8173 26.3584C47.7133 18.7309 42.2848 12.3224 34.9222 9.94799C33.6237 9.52711 32.2417 9.23726 30.6929 9.06255C30.3117 9.02284 27.6868 8.97917 27.3572 9.01093ZM35.6728 21.2959C35.8634 21.3912 36.0183 21.5738 36.0739 21.7644C36.1056 21.8677 36.1136 24.0753 36.1056 29.0504L36.0937 36.1896L34.8349 34.2598L33.572 32.3301V27.1406C33.572 23.7855 33.5879 21.8994 33.6117 21.8081C33.6753 21.5858 33.8143 21.4111 34.0049 21.3078C34.1677 21.2244 34.2273 21.2165 34.8507 21.2165C35.4385 21.2165 35.5417 21.2244 35.6728 21.2959Z" fill="black"/>
</g>
<defs>
<clipPath id="clip0_10_207">
<rect width="40.625" height="40.625" fill="white" transform="translate(8.375 9)"/>
</clipPath>
</defs>
</svg>
