<svg width="58" height="58" viewBox="0 0 58 58" fill="none" xmlns="http://www.w3.org/2000/svg">
<rect x="2" y="2" width="54" height="54" rx="12" fill="white" stroke="black" stroke-width="4"/>
<g clip-path="url(#clip0_10_222)">
<path d="M29 49.3804C28.4177 49.3804 27.8742 49.2252 27.3696 48.9534L22.2065 45.8866C21.4301 45.4596 21.8183 45.3043 22.0512 45.2267C23.0994 44.8773 23.2935 44.7997 24.3804 44.1786C24.4969 44.1009 24.6522 44.1398 24.7686 44.2174L28.7283 46.5854C28.8835 46.663 29.0776 46.663 29.1941 46.5854L44.6832 37.618C44.8385 37.5404 44.9162 37.3851 44.9162 37.191V19.295C44.9162 19.1009 44.8385 18.9457 44.6832 18.868L29.1941 9.93944C29.0388 9.8618 28.8447 9.8618 28.7283 9.93944L13.2391 18.868C13.0839 18.9457 13.0062 19.1398 13.0062 19.295V37.191C13.0062 37.3463 13.0839 37.5404 13.2391 37.618L17.4705 40.0637C19.7609 41.2283 21.1972 39.8696 21.1972 38.5109V20.8478C21.1972 20.6149 21.3913 20.382 21.663 20.382H23.6429C23.8758 20.382 24.1087 20.5761 24.1087 20.8478V38.5109C24.1087 41.5776 22.4394 43.3634 19.528 43.3634C18.6351 43.3634 17.9363 43.3634 15.9565 42.3929L11.8804 40.0637C10.8711 39.4814 10.25 38.3944 10.25 37.2298V19.3339C10.25 18.1693 10.8711 17.0823 11.8804 16.5L27.3696 7.53261C28.3401 6.98913 29.6599 6.98913 30.6304 7.53261L46.1196 16.5C47.1289 17.0823 47.75 18.1693 47.75 19.3339V37.2298C47.75 38.3944 47.1289 39.4814 46.1196 40.0637L30.6304 49.0311C30.1258 49.264 29.5435 49.3804 29 49.3804ZM33.7748 37.0745C26.9814 37.0745 25.5839 33.9689 25.5839 31.3292C25.5839 31.0963 25.778 30.8634 26.0497 30.8634H28.0683C28.3012 30.8634 28.4953 31.0186 28.4953 31.2516C28.8059 33.309 29.6988 34.3183 33.8137 34.3183C37.0745 34.3183 38.472 33.5807 38.472 31.8339C38.472 30.8245 38.0839 30.087 32.9984 29.5823C28.7671 29.1553 26.1273 28.2236 26.1273 24.8463C26.1273 21.7019 28.7671 19.8385 33.1925 19.8385C38.1615 19.8385 40.6071 21.5466 40.9177 25.2733C40.9177 25.3898 40.8789 25.5062 40.8012 25.6227C40.7236 25.7003 40.6071 25.7779 40.4907 25.7779H38.472C38.2779 25.7779 38.0839 25.6227 38.045 25.4286C37.5792 23.2935 36.3758 22.5947 33.1925 22.5947C29.6211 22.5947 29.1941 23.837 29.1941 24.7686C29.1941 25.8944 29.6988 26.2438 34.5124 26.8649C39.2873 27.486 41.5388 28.3789 41.5388 31.7174C41.5 35.1335 38.705 37.0745 33.7748 37.0745Z" fill="black"/>
</g>
<defs>
<clipPath id="clip0_10_222">
<rect width="37.5" height="42.334" fill="white" transform="translate(10.25 7.125)"/>
</clipPath>
</defs>
</svg>
