<svg width="58" height="58" viewBox="0 0 58 58" fill="none" xmlns="http://www.w3.org/2000/svg">
<rect x="2" y="2" width="54" height="54" rx="12" fill="white" stroke="black" stroke-width="4"/>
<g clip-path="url(#clip0_10_357)">
<path d="M48.8339 31.2667C50.2555 20.1375 42.396 9.96275 31.287 8.54113C20.1781 7.11951 9.96275 14.979 8.54113 26.088C7.11951 37.1969 14.979 47.3919 26.088 48.8339C37.2172 50.2555 47.3919 42.396 48.8339 31.2667Z" fill="black"/>
<path d="M36.0188 21.4168L27.4485 29.9872L25.0317 27.5704C33.4599 19.1422 34.2926 19.8734 36.0188 21.4168Z" fill="white"/>
<path d="M27.4487 30.1904C27.3878 30.1904 27.3472 30.17 27.3066 30.1294L24.8695 27.7127C24.7883 27.6314 24.7883 27.5096 24.8695 27.4284C33.4398 18.858 34.3334 19.6704 36.1409 21.2951C36.1815 21.3357 36.2019 21.3763 36.2019 21.4372C36.2019 21.4982 36.1815 21.5388 36.1409 21.5794L27.5706 30.1294C27.5503 30.17 27.4894 30.1904 27.4487 30.1904ZM25.3163 27.5705L27.4487 29.7029L35.7144 21.4372C34.2116 20.0969 33.1961 19.6907 25.3163 27.5705Z" fill="black"/>
<path d="M29.9063 32.4447L27.5708 30.1091L36.1411 21.5388C38.436 23.854 35.0038 27.6112 29.9063 32.4447Z" fill="white"/>
<path d="M29.906 32.6477C29.8451 32.6477 29.8044 32.6274 29.7638 32.5868L27.4283 30.2513C27.3877 30.2107 27.3877 30.17 27.3877 30.1091C27.3877 30.0482 27.408 30.0076 27.4486 29.967L36.019 21.3966C36.1002 21.3154 36.222 21.3154 36.3033 21.3966C36.8313 21.884 37.1156 22.5745 37.0953 23.2853C37.0547 25.5396 34.4958 28.4032 30.0685 32.5868C30.0075 32.6274 29.9466 32.6477 29.906 32.6477ZM27.8548 30.1091C29.1546 31.4292 29.7029 31.9572 29.906 32.1603C33.3179 28.9109 36.6282 25.5802 36.6485 23.2853C36.6688 22.7573 36.4657 22.2293 36.1205 21.8231L27.8548 30.1091Z" fill="black"/>
<path d="M25.0724 27.6314L26.7986 29.3576C26.8392 29.3983 26.8392 29.4389 26.7986 29.4795C26.7783 29.4998 26.7783 29.4998 26.758 29.4998L23.1836 30.2715C23.0009 30.2919 22.8384 30.17 22.7978 29.9872C22.7775 29.8857 22.8181 29.7841 22.879 29.7232L24.9505 27.6517C24.9911 27.6111 25.052 27.5908 25.0724 27.6314Z" fill="white"/>
<path d="M23.1228 30.4746C22.8181 30.4746 22.5947 30.2309 22.5947 29.9262C22.5947 29.7841 22.6557 29.6419 22.7572 29.5404L24.8287 27.4689C24.9506 27.3673 25.113 27.3673 25.2349 27.4689L26.9611 29.1951C27.083 29.2967 27.083 29.4794 26.9611 29.6013C26.9205 29.6419 26.8799 29.6622 26.819 29.6825L23.2446 30.4543C23.204 30.4543 23.1634 30.4746 23.1228 30.4746ZM25.0115 27.8547L23.0212 29.845C22.9806 29.8856 22.9603 29.9465 23.0009 30.0075C23.0212 30.0684 23.0821 30.0887 23.1431 30.0684L26.494 29.3373L25.0115 27.8547Z" fill="black"/>
<path d="M40.5479 16.6645C39.2481 15.4053 37.1563 15.446 35.8972 16.766C34.638 18.0861 34.6786 20.1576 35.9987 21.4168C37.0751 22.4525 38.6998 22.6353 39.9792 21.8635L37.664 19.5483L40.5479 16.6645Z" fill="white"/>
<path d="M38.2734 22.5338C36.3441 22.5338 34.7803 20.9701 34.7803 19.0407C34.7803 17.1114 36.3441 15.5476 38.2734 15.5476C39.167 15.5476 40.0403 15.8929 40.6901 16.5224C40.7308 16.563 40.7511 16.6037 40.7511 16.6646C40.7511 16.7255 40.7308 16.7661 40.6901 16.8068L37.9485 19.5484L40.1012 21.7012C40.1824 21.7824 40.1824 21.9043 40.1012 21.9855C40.0809 22.0058 40.0809 22.0058 40.0606 22.0261C39.5325 22.3511 38.903 22.5338 38.2734 22.5338ZM38.2734 15.9741C36.5675 15.9741 35.1865 17.3551 35.2068 19.061C35.2068 20.767 36.5878 22.148 38.2937 22.1277C38.7608 22.1277 39.2279 22.0261 39.6544 21.8027L37.522 19.6906C37.4813 19.65 37.461 19.6094 37.461 19.5484C37.461 19.4875 37.4813 19.4469 37.522 19.4063L40.2434 16.6849C39.695 16.2178 39.0045 15.9741 38.2734 15.9741Z" fill="black"/>
<path d="M40.6088 16.7254L40.5682 16.6848L37.6641 19.5484L39.959 21.8433C40.1824 21.7011 40.4058 21.5386 40.5885 21.3558C41.8883 20.0764 41.8883 18.0049 40.6088 16.7254Z" fill="white"/>
<path d="M39.9792 22.0667C39.9183 22.0667 39.8777 22.0464 39.8371 22.0057L37.5219 19.6905C37.4812 19.6499 37.4609 19.6093 37.4609 19.5484C37.4609 19.4874 37.4812 19.4468 37.5219 19.4062L40.4057 16.5224C40.487 16.4411 40.6088 16.4411 40.69 16.5224L40.751 16.563C42.1117 17.9237 42.1117 20.117 40.7713 21.498C40.5682 21.7011 40.3448 21.8839 40.1011 22.026C40.0402 22.0464 39.9995 22.0667 39.9792 22.0667ZM37.9483 19.5484L39.9995 21.5996C40.162 21.498 40.3245 21.3559 40.4463 21.234C41.6039 20.0764 41.6649 18.1877 40.5479 16.9691L37.9483 19.5484Z" fill="black"/>
<path d="M36.3642 21.7823C35.8768 21.2949 35.0848 21.2949 34.5974 21.7823L26.9409 29.4387L28.2204 30.7182L36.3236 23.6101C36.8516 23.1633 36.8923 22.3713 36.4455 21.8432C36.4048 21.8229 36.3845 21.8026 36.3642 21.7823Z" fill="white"/>
<path d="M28.2003 30.9215C28.1394 30.9215 28.0988 30.9012 28.0582 30.8606L26.7787 29.5811C26.6975 29.4999 26.6975 29.378 26.7787 29.2968L34.4351 21.6404C35.0038 21.0717 35.9177 21.0717 36.4863 21.6404C37.055 22.209 37.055 23.1229 36.4863 23.6915C36.466 23.7119 36.4457 23.7322 36.4254 23.7525L28.3222 30.8606C28.3019 30.9012 28.2612 30.9215 28.2003 30.9215ZM27.2255 29.4389L28.2206 30.4341L36.1817 23.4478C36.6285 23.0823 36.6691 22.4121 36.3035 21.9653C35.938 21.5185 35.2678 21.4779 34.821 21.8434C34.8007 21.8637 34.7804 21.8841 34.7398 21.9044L27.2255 29.4389Z" fill="black"/>
<path d="M21.0717 38.1513C20.9904 38.192 20.9498 38.2732 20.9701 38.3544L21.3154 39.8167C21.3966 40.0198 21.2748 40.2635 21.0514 40.3244C20.8889 40.3853 20.7061 40.3244 20.6046 40.2025L18.3706 37.9889L25.6615 30.698L28.1798 30.7386L29.8857 32.4446C29.4795 32.7898 27.0222 35.1659 21.0717 38.1513Z" fill="white"/>
<path d="M20.9091 40.5274C20.7466 40.5274 20.5841 40.4665 20.4826 40.3447L18.2689 38.131C18.2283 38.0904 18.208 38.0498 18.208 37.9888C18.208 37.9279 18.2283 37.8873 18.2689 37.8467L25.5598 30.5558C25.6004 30.5152 25.6614 30.4949 25.702 30.4949L28.2203 30.5355C28.2812 30.5355 28.3218 30.5558 28.3624 30.5964L30.0684 32.3024C30.109 32.343 30.1293 32.4039 30.1293 32.4648C30.1293 32.5258 30.109 32.5664 30.0481 32.607L29.9059 32.7288C27.7532 34.6176 24.8287 36.5063 21.1934 38.3138L21.5387 39.7557C21.5996 40.0197 21.4777 40.304 21.234 40.4462C21.1122 40.5071 21.0106 40.5274 20.9091 40.5274ZM18.6751 37.9888L20.7669 40.0603C20.8278 40.1619 20.9497 40.2025 21.0512 40.1416C21.1528 40.0806 21.1934 39.9588 21.1325 39.8572L20.7872 38.395C20.7466 38.2122 20.8278 38.0498 20.9903 37.9685C24.585 36.161 27.4891 34.2926 29.6216 32.4445L28.1187 30.9417L25.7832 30.901L18.6751 37.9888Z" fill="black"/>
<path d="M16.6445 39.7355L18.391 37.9889L20.9906 40.5884L16.8476 40.3041C16.6648 40.2838 16.5429 40.1213 16.5632 39.9385C16.5632 39.8573 16.5836 39.7761 16.6445 39.7355Z" fill="white"/>
<path d="M20.9905 40.7712L16.8272 40.4869C16.5226 40.4666 16.3195 40.2026 16.3398 39.8979C16.3601 39.7761 16.4007 39.6542 16.5022 39.573L18.2488 37.8264C18.33 37.7452 18.4519 37.7452 18.5331 37.8264L21.1327 40.426C21.1936 40.4869 21.2139 40.5681 21.1733 40.6494C21.1327 40.7306 21.0717 40.7712 20.9905 40.7712ZM18.391 38.2732L16.7866 39.8776C16.7256 39.9182 16.7256 40.0198 16.7866 40.0604C16.8069 40.0807 16.8272 40.101 16.8678 40.101L20.4625 40.3447L18.391 38.2732Z" fill="black"/>
<path d="M24.9506 31.6322C24.8288 31.6322 24.7476 31.5307 24.7476 31.4291C24.7476 31.3682 24.7679 31.3276 24.8085 31.287L26.7784 29.317C26.8597 29.2358 26.9815 29.2358 27.0628 29.317L28.3422 30.5965C28.4031 30.6574 28.4235 30.7183 28.4031 30.7996C28.3828 30.8605 28.3219 30.9214 28.2407 30.9417L24.9913 31.6322C24.971 31.6322 24.9506 31.6322 24.9506 31.6322ZM26.9206 29.7435L25.5802 31.0839L27.7736 30.6168L26.9206 29.7435Z" fill="black"/>
<path d="M28.1796 30.7386L25.9456 31.2261C25.7832 31.2667 25.6207 31.1651 25.5801 31.0027C25.5598 30.9011 25.5801 30.7996 25.6613 30.7183L26.9002 29.4795L28.1796 30.7386Z" fill="white"/>
<path d="M25.9052 31.4291C25.6209 31.4291 25.3975 31.2058 25.3975 30.9214C25.3975 30.7793 25.4584 30.6574 25.5396 30.5559L26.7785 29.317C26.8597 29.2358 26.9815 29.2358 27.0628 29.317L28.3422 30.5965C28.4032 30.6574 28.4235 30.7183 28.4032 30.7996C28.3829 30.8605 28.3219 30.9214 28.2407 30.9417L26.0067 31.4291C25.9661 31.4291 25.9255 31.4291 25.9052 31.4291ZM26.9206 29.7435L25.8239 30.8402C25.7833 30.8808 25.7833 30.9214 25.8036 30.962C25.8239 31.0027 25.8646 31.023 25.9255 31.023L27.7939 30.6168L26.9206 29.7435Z" fill="black"/>
<path d="M40.6293 18.6752C40.5886 18.5533 40.4465 18.4924 40.3246 18.533C40.2028 18.5737 40.1418 18.7158 40.1825 18.8377C40.1825 18.858 40.2028 18.8783 40.2028 18.8986C40.3246 19.1423 40.284 19.4469 40.1215 19.6703C40.0403 19.7719 40.0606 19.914 40.1418 19.9953C40.2434 20.0765 40.3856 20.0562 40.4668 19.9547C40.7714 19.5688 40.8323 19.0814 40.6293 18.6752Z" fill="black"/>
</g>
<defs>
<clipPath id="clip0_10_357">
<rect width="40.625" height="40.625" fill="white" transform="translate(8.375 8.375)"/>
</clipPath>
</defs>
</svg>
