<svg width="298" height="400" viewBox="0 0 298 400" fill="none" xmlns="http://www.w3.org/2000/svg">
<path d="M297.5 100V399.5H98.5V100C98.5 45.0477 143.048 0.5 198 0.5C252.952 0.5 297.5 45.0477 297.5 100Z" stroke="white"/>
<path d="M101.199 399.5L297.5 201.216V399.5H101.199Z" stroke="white"/>
<path d="M0.5 0.5H199.5V300C199.5 354.952 154.952 399.5 100 399.5C45.0477 399.5 0.5 354.952 0.5 300V0.5Z" stroke="white"/>
<path d="M198.793 0.5L0.5 198.793V0.5H198.793Z" stroke="white"/>
<path d="M220.357 229.643C238.899 248.185 249.367 273.291 249.499 299.5L50.5013 299.5C50.6328 273.291 61.1009 248.185 79.6429 229.643C98.3028 210.983 123.611 200.5 150 200.5C176.389 200.5 201.697 210.983 220.357 229.643Z" stroke="white"/>
<path d="M220.357 170.357C238.899 151.815 249.367 126.709 249.499 100.5L50.5013 100.5C50.6328 126.709 61.1009 151.815 79.6429 170.357C98.3028 189.017 123.611 199.5 150 199.5C176.389 199.5 201.697 189.017 220.357 170.357Z" stroke="white"/>
</svg>
