<svg width="58" height="58" viewBox="0 0 58 58" fill="none" xmlns="http://www.w3.org/2000/svg">
<rect x="2" y="2" width="54" height="54" rx="12" fill="white" stroke="black" stroke-width="4"/>
<g clip-path="url(#clip0_10_213)">
<path d="M43.0963 21.6163C42.6424 21.4601 42.1721 21.3123 41.6879 21.1725C41.7675 20.8477 41.8406 20.5271 41.9055 20.212C42.9716 15.037 42.2746 10.868 39.8943 9.49535C37.612 8.17919 33.8794 9.5515 30.1096 12.8322C29.7471 13.1477 29.3836 13.4817 29.0202 13.8317C28.7781 13.6001 28.5364 13.3763 28.2953 13.1622C24.3445 9.65429 20.3844 8.176 18.0065 9.55259C15.7264 10.8726 15.0511 14.7918 16.0108 19.6962C16.1035 20.1699 16.2118 20.6537 16.3343 21.1455C15.7738 21.3046 15.2327 21.4742 14.715 21.6547C10.0831 23.2695 7.125 25.8005 7.125 28.4257C7.125 31.137 10.3006 33.8566 15.125 35.5056C15.5058 35.6357 15.9008 35.7587 16.308 35.8755C16.1758 36.4075 16.0609 36.9288 15.9644 37.4372C15.0493 42.2565 15.7639 46.0832 18.038 47.3948C20.3869 48.7494 24.3291 47.357 28.1678 44.0016C28.4712 43.7363 28.7756 43.4551 29.0807 43.1602C29.476 43.541 29.8708 43.9013 30.2634 44.2393C33.9816 47.4389 37.6539 48.7309 39.9259 47.4156C42.2725 46.0572 43.0351 41.9464 42.0451 36.945C41.9694 36.563 41.8814 36.1728 41.7826 35.7756C42.0595 35.6938 42.3312 35.6093 42.5962 35.5214C47.6118 33.8597 50.875 31.1732 50.875 28.4257C50.875 25.791 47.8215 23.243 43.0963 21.6163ZM42.0085 33.7474C41.7692 33.8266 41.5238 33.9031 41.2736 33.9774C40.7199 32.2245 39.9727 30.3606 39.0582 28.4348C39.9308 26.5549 40.6492 24.7148 41.1874 22.9733C41.635 23.1028 42.0693 23.2394 42.4879 23.3835C46.5365 24.7773 49.006 26.8379 49.006 28.4257C49.006 30.117 46.339 32.3125 42.0085 33.7474ZM40.2116 37.308C40.6494 39.5195 40.7119 41.519 40.4219 43.0821C40.1613 44.4867 39.6373 45.4231 38.9894 45.7981C37.6107 46.5962 34.6622 45.5588 31.4823 42.8225C31.1178 42.5088 30.7506 42.1739 30.3823 41.8194C31.615 40.4711 32.8471 38.9038 34.0495 37.163C36.1645 36.9754 38.1627 36.6685 39.9748 36.2496C40.064 36.6097 40.1433 36.9627 40.2116 37.308ZM22.0404 45.6602C20.6933 46.136 19.6204 46.1496 18.9719 45.7756C17.5919 44.9797 17.0182 41.9072 17.8007 37.7858C17.8904 37.3138 17.997 36.829 18.12 36.3334C19.9122 36.7297 21.8958 37.0148 24.0158 37.1867C25.2264 38.8901 26.494 40.4557 27.7715 41.8266C27.4924 42.0961 27.2143 42.3526 26.9379 42.5943C25.2405 44.0781 23.5394 45.1308 22.0404 45.6602ZM15.7295 33.737C13.5962 33.0079 11.8345 32.0602 10.6269 31.0261C9.54175 30.0969 8.99391 29.1743 8.99391 28.4257C8.99391 26.8326 11.369 24.8006 15.3302 23.4195C15.8109 23.2519 16.314 23.094 16.8362 22.9457C17.3836 24.7265 18.1018 26.5884 18.9685 28.4712C18.0906 30.3819 17.3622 32.2735 16.8094 34.0752C16.4371 33.9682 16.0765 33.8556 15.7295 33.737ZM17.845 19.3373C17.0228 15.1353 17.5688 11.9655 18.9429 11.1701C20.4066 10.3228 23.6431 11.5309 27.0543 14.5598C27.2724 14.7534 27.4913 14.9561 27.7108 15.1657C26.4396 16.5306 25.1836 18.0845 23.9838 19.7778C21.9262 19.9685 19.9566 20.2749 18.1457 20.6851C18.0319 20.2271 17.931 19.7772 17.845 19.3373ZM36.7167 23.9972C36.2838 23.2494 35.8394 22.5194 35.3863 21.8092C36.7822 21.9857 38.1196 22.2199 39.3756 22.5066C38.9985 23.7151 38.5286 24.9786 37.9753 26.2739C37.5785 25.5204 37.1587 24.7608 36.7167 23.9972ZM29.0209 16.5014C29.8829 17.4353 30.7463 18.4781 31.5954 19.6094C30.7397 19.569 29.8734 19.548 29 19.548C28.1348 19.548 27.2749 19.5686 26.4245 19.6083C27.2745 18.4874 28.1453 17.4461 29.0209 16.5014ZM21.2757 24.0101C20.8433 24.76 20.4313 25.5155 20.0407 26.2725C19.4964 24.9817 19.0308 23.7124 18.6505 22.4868C19.8987 22.2075 21.2298 21.9791 22.6169 21.806C22.1574 22.5226 21.7093 23.2581 21.2757 24.01V24.0101ZM22.6568 35.1787C21.2238 35.0188 19.8727 34.8022 18.6247 34.5306C19.0111 33.2831 19.487 31.9867 20.0428 30.6682C20.4344 31.4246 20.848 32.1804 21.2831 32.9319H21.2832C21.7264 33.6975 22.1855 34.4474 22.6568 35.1787ZM29.0726 40.4817C28.1868 39.526 27.3032 38.4688 26.4403 37.3316C27.278 37.3644 28.132 37.3812 29 37.3812C29.8917 37.3812 30.7733 37.3612 31.641 37.3225C30.789 38.4802 29.9288 39.5391 29.0726 40.4817ZM37.9932 30.601C38.5779 31.9338 39.0709 33.2234 39.4623 34.4496C38.1938 34.739 36.8242 34.972 35.3812 35.1452C35.8353 34.4255 36.2837 33.6829 36.7242 32.919C37.1699 32.1462 37.5931 31.3722 37.9932 30.601ZM35.1053 31.9853C34.4214 33.1711 33.7193 34.3031 33.0065 35.3716C31.7082 35.4644 30.367 35.5123 29 35.5123C27.6385 35.5123 26.3142 35.47 25.0389 35.3872C24.2974 34.3047 23.58 33.1693 22.9005 31.9955H22.9006C22.2229 30.8249 21.5991 29.6444 21.0339 28.4705C21.599 27.2939 22.2211 26.1121 22.895 24.9436L22.8948 24.9438C23.5704 23.7722 24.2815 22.6424 25.0162 21.5667C26.3173 21.4683 27.6515 21.417 28.9999 21.417H29C30.3545 21.417 31.6904 21.4687 32.9911 21.5679C33.7146 22.6358 34.4208 23.7619 35.0991 24.9337C35.7851 26.1187 36.4153 27.2926 36.9852 28.444C36.417 29.6151 35.7882 30.8009 35.1053 31.9853ZM38.9608 11.1145C40.4258 11.9594 40.9955 15.3667 40.0751 19.8347C40.0163 20.1198 39.9502 20.4102 39.8784 20.7045C38.0633 20.2857 36.0923 19.9741 34.0287 19.7805C32.8266 18.0685 31.5808 16.5122 30.3304 15.1648C30.6666 14.8414 31.0023 14.533 31.3366 14.242C34.5665 11.4312 37.5853 10.3214 38.9608 11.1145ZM29 24.519C31.1576 24.519 32.9067 26.268 32.9067 28.4257C32.9067 30.5833 31.1576 32.3324 29 32.3324C26.8424 32.3324 25.0933 30.5833 25.0933 28.4257C25.0933 26.268 26.8424 24.519 29 24.519Z" fill="black"/>
</g>
<defs>
<clipPath id="clip0_10_213">
<rect width="43.75" height="38.9648" fill="white" transform="translate(7.125 9)"/>
</clipPath>
</defs>
</svg>
