<svg width="58" height="58" viewBox="0 0 58 58" fill="none" xmlns="http://www.w3.org/2000/svg">
<rect x="2" y="2" width="54" height="54" rx="12" fill="white" stroke="black" stroke-width="4"/>
<path d="M37.4391 37.3821C39.0537 37.215 40.2785 35.8231 40.2228 34.1529C40.1671 32.4826 38.7753 31.1464 37.1051 31.1464H36.9937C35.2679 31.2021 33.9317 32.6496 33.9874 34.3756C34.043 35.2107 34.3771 35.9345 34.8781 36.4356C32.9852 40.1658 30.0902 42.894 25.7476 45.1767C22.7969 46.7356 19.7349 47.2923 16.6728 46.9026C14.1675 46.5686 12.2189 45.455 10.9941 43.6177C9.21255 40.8896 9.04553 37.9388 10.5487 34.988C11.6065 32.8723 13.2767 31.3134 14.3345 30.5339C14.1118 29.8102 13.7778 28.5853 13.6108 27.6945C5.53809 33.5404 6.3732 41.4464 8.82284 45.1767C10.6601 47.9605 14.3902 49.6864 18.5101 49.6864C19.6235 49.6864 20.737 49.5751 21.8505 49.2967C28.9767 47.9048 34.3771 43.6734 37.4391 37.3821ZM47.2377 30.4783C43.0065 25.5231 36.771 22.795 29.6448 22.795H28.754C28.253 21.7929 27.1952 21.1247 26.026 21.1247H25.9147C24.1888 21.1804 22.8526 22.628 22.9083 24.3539C22.964 26.0242 24.3558 27.3604 26.026 27.3604H26.1374C27.3622 27.3048 28.42 26.5253 28.8654 25.4675H29.8675C34.0987 25.4675 38.1072 26.6923 41.726 29.0864C44.5097 30.9237 46.5139 33.3177 47.6274 36.2129C48.5739 38.5513 48.5182 40.834 47.5161 42.7826C45.9572 45.7334 43.3405 47.348 39.8888 47.348C37.6618 47.348 35.5462 46.6799 34.4327 46.1788C33.8203 46.7356 32.7069 47.6264 31.9274 48.1832C34.3214 49.2967 36.771 49.9091 39.1093 49.9091C44.454 49.9091 48.4069 46.9583 49.91 44.0075C51.5246 40.7783 51.4132 35.2107 47.2377 30.4783ZM18.9555 38.3285C19.0111 39.9988 20.403 41.335 22.0732 41.335H22.1845C23.9104 41.2794 25.2466 39.8318 25.1909 38.1058C25.1352 36.4356 23.7434 35.0994 22.0732 35.0994H21.9618C21.8505 35.0994 21.6835 35.0994 21.5721 35.155C19.2895 31.3691 18.343 27.2491 18.6771 22.795C18.8998 19.4545 20.0133 16.5593 21.9618 14.1653C23.5764 12.1053 26.6941 11.1031 28.8097 11.0474C34.7111 10.9361 37.2164 18.2853 37.3835 21.2361C38.1072 21.4031 39.332 21.7929 40.1671 22.0712C39.4991 13.0518 33.9317 8.375 28.587 8.375C23.5764 8.375 18.9555 11.9939 17.1182 17.3388C14.5572 24.4653 16.2274 31.3134 19.3452 36.714C19.0668 37.1037 18.8998 37.7161 18.9555 38.3285Z" fill="black"/>
</svg>
