<svg width="86" height="86" viewBox="0 0 86 86" fill="none" xmlns="http://www.w3.org/2000/svg">
<rect x="4" y="4" width="78" height="78" rx="14" fill="white" stroke="black" stroke-width="8"/>
<path d="M43.9082 13C27.3907 13 14 26.3904 14 42.9079C14 59.4261 27.3907 72.8154 43.9082 72.8154C60.4275 72.8154 73.8168 59.4261 73.8168 42.9079C73.8168 26.3914 60.4275 13.0014 43.9079 13.0014L43.9082 13ZM57.6239 56.1357C57.0882 57.0143 55.9382 57.2929 55.0596 56.7536C48.0375 52.4643 39.1975 51.4929 28.7868 53.8714C27.7836 54.1 26.7836 53.4714 26.555 52.4679C26.3254 51.4643 26.9514 50.4643 27.9571 50.2357C39.35 47.6318 49.1225 48.7536 57.0061 53.5714C57.8846 54.1107 58.1632 55.2571 57.6239 56.1357ZM61.2846 47.9911C60.6096 49.0893 59.1739 49.4357 58.0775 48.7607C50.0382 43.8182 37.7836 42.3871 28.2746 45.2736C27.0414 45.6461 25.7389 44.9511 25.3646 43.72C24.9932 42.4868 25.6886 41.1868 26.9196 40.8118C37.7814 37.5161 51.2846 39.1125 60.5168 44.7857C61.6132 45.4607 61.9596 46.8961 61.2846 47.9911ZM61.5989 39.5111C51.9596 33.7857 36.0561 33.2593 26.8529 36.0525C25.375 36.5007 23.8121 35.6664 23.3643 34.1886C22.9164 32.71 23.75 31.1482 25.2289 30.6989C35.7936 27.4918 53.3561 28.1114 64.4539 34.6996C65.7861 35.4886 66.2218 37.2054 65.4325 38.5329C64.6468 39.8621 62.9254 40.3004 61.6003 39.5111H61.5989Z" fill="black"/>
</svg>
