<svg width="58" height="58" viewBox="0 0 58 58" fill="none" xmlns="http://www.w3.org/2000/svg">
<rect x="2" y="2" width="54" height="54" rx="12" fill="white" stroke="black" stroke-width="4"/>
<path d="M29 17.3334C23.6665 17.3334 20.3333 20.0001 18.9998 25.333C21 22.6663 23.3334 21.6667 25.9999 22.3331C27.5214 22.7133 28.6089 23.8176 29.8128 25.0394C31.7735 27.0296 34.0429 29.3331 39.0003 29.3331C44.3333 29.3331 47.667 26.6664 49 21.333C47.0003 23.9997 44.6669 24.9998 41.9999 24.3334C40.4788 23.9531 39.3914 22.8489 38.1874 21.6271C36.2267 19.6369 33.9569 17.3334 29 17.3334V17.3334ZM18.9998 29.3331C13.6668 29.3331 10.333 31.9998 9 37.3333C10.9998 34.6666 13.3331 33.6664 16.0001 34.3334C17.5212 34.7141 18.6086 35.8178 19.8126 37.0391C21.7733 39.0294 24.0431 41.3334 29 41.3334C34.3335 41.3334 37.6668 38.6667 39.0003 33.3332C37 35.9999 34.6666 37.0001 32.0001 36.3331C30.4786 35.9534 29.3911 34.8487 28.1872 33.6274C26.2265 31.6371 23.9571 29.3331 18.9998 29.3331V29.3331Z" fill="black"/>
</svg>
