<svg width="50" height="50" viewBox="0 0 50 50" fill="none" xmlns="http://www.w3.org/2000/svg">
<g clip-path="url(#clip0_10_193)">
<path d="M11.057 25.1659L11.0411 27.2135L14.2951 27.2135H17.549V36.4595V45.7056H19.8506H22.1522V36.4595L22.1522 27.2135H25.4062H28.6602V25.2056C28.6602 24.0945 28.6363 23.1659 28.6046 23.1421C28.5808 23.1103 24.6205 23.0945 19.8189 23.1024L11.0808 23.1262L11.057 25.1659Z" fill="#0A0A0A"/>
<path d="M40.3449 23.0681C41.6147 23.3856 42.5829 23.9491 43.4718 24.8697C43.9322 25.3618 44.6147 26.2586 44.6702 26.4729C44.6861 26.5364 42.5115 27.9967 41.1941 28.8141C41.1464 28.8459 40.956 28.6395 40.7417 28.3221C40.0988 27.3856 39.4242 26.9808 38.3925 26.9094C36.8766 26.8062 35.9004 27.5999 35.9083 28.9253C35.9083 29.3141 35.9639 29.5443 36.1226 29.8618C36.456 30.5522 37.075 30.9649 39.0195 31.8062C42.5988 33.3459 44.1306 34.3618 45.0829 35.8062C46.1464 37.4173 46.3845 39.9887 45.6623 41.9014C44.8687 43.9808 42.9004 45.3935 40.1306 45.8618C39.2734 46.0126 37.2417 45.9887 36.321 45.8221C34.3131 45.4649 32.4083 44.4729 31.2337 43.1713C30.7734 42.6634 29.8766 41.338 29.9322 41.2427C29.956 41.211 30.1623 41.084 30.3925 40.9491C30.6147 40.8221 31.456 40.338 32.2496 39.8776L33.6861 39.0443L33.9877 39.4887C34.4083 40.1316 35.329 41.0126 35.8845 41.3062C37.4798 42.1475 39.6702 42.0284 40.7496 41.0602C41.2099 40.6395 41.4004 40.203 41.4004 39.5602C41.4004 38.9808 41.329 38.7268 41.0274 38.2903C40.6385 37.7348 39.8448 37.2665 37.5909 36.2903C35.0115 35.1792 33.9004 34.4887 32.8845 33.3935C32.2972 32.7586 31.7417 31.7427 31.5115 30.8935C31.321 30.1872 31.2734 28.4173 31.4242 27.703C31.956 25.211 33.8369 23.4729 36.5512 22.957C37.4322 22.7903 39.4798 22.8538 40.3449 23.0681Z" fill="#0A0A0A"/>
</g>
<rect x="2" y="2" width="46" height="46" rx="8" stroke="black" stroke-width="4"/>
<defs>
<clipPath id="clip0_10_193">
<rect width="50" height="50" rx="10" fill="white"/>
</clipPath>
</defs>
</svg>
