<svg width="42" height="42" viewBox="0 0 42 42" fill="none" xmlns="http://www.w3.org/2000/svg">
<path fill-rule="evenodd" clip-rule="evenodd" d="M21 0.6875C32.2183 0.6875 41.3125 9.78172 41.3125 21C41.3125 32.2183 32.2183 41.3125 21 41.3125C9.78172 41.3125 0.6875 32.2183 0.6875 21C0.6875 9.78172 9.78172 0.6875 21 0.6875ZM13.6451 13.6451C14.2084 13.0819 15.0947 13.0386 15.7077 13.5152L15.8549 13.6451L21 18.7903L26.1451 13.6451C26.7553 13.035 27.7447 13.035 28.3549 13.6451C28.9181 14.2084 28.9614 15.0947 28.4848 15.7077L28.3549 15.8549L23.2097 21L28.3549 26.1451C28.965 26.7553 28.965 27.7447 28.3549 28.3549C27.7916 28.9181 26.9053 28.9614 26.2923 28.4848L26.1451 28.3549L21 23.2097L15.8549 28.3549C15.2447 28.965 14.2553 28.965 13.6451 28.3549C13.0819 27.7916 13.0386 26.9053 13.5152 26.2923L13.6451 26.1451L18.7903 21L13.6451 15.8549C13.035 15.2447 13.035 14.2553 13.6451 13.6451Z" fill="white"/>
</svg>
